<svg width="121" height="64" viewBox="0 0 121 64" fill="none" xmlns="http://www.w3.org/2000/svg">
<rect x="0.5" y="0.5" width="119.002" height="63" rx="26.5" fill="white" fill-opacity="0.8"/>
<path d="M38.4205 23.5673H34.3383C34.0529 23.5673 33.8201 23.8019 33.8201 24.0896V39.9079C33.8201 40.1956 34.0529 40.4302 34.3383 40.4302H38.4205C38.7058 40.4302 38.9386 40.1956 38.9386 39.9079V24.0921C38.9411 23.8019 38.7083 23.5673 38.4205 23.5673Z" fill="#334E56"/>
<path d="M32.5189 48H35.9654C36.1706 48 36.3558 47.8789 36.4384 47.6922L38.611 42.8172C38.7661 42.4715 38.5133 42.0804 38.1379 42.0804H34.1883C33.9681 42.0804 33.7703 42.2217 33.6978 42.4337L32.0283 47.3086C31.9132 47.6467 32.1635 48 32.5189 48Z" fill="#334E56"/>
<path d="M54.3416 23.5673C54.0562 23.5673 53.8235 23.8019 53.8235 24.0896V34.2381C53.8235 39.1005 52.7748 39.5597 49.999 39.5597C47.2233 39.5597 46.1746 39.1005 46.1746 34.2381V24.0921C46.1746 23.8044 45.9418 23.5698 45.6565 23.5698H41.5743C41.2889 23.5698 41.0562 23.8044 41.0562 24.0921V32C41.0562 35.7723 41.6719 37.9221 43.116 39.1862C44.6053 40.4908 46.8529 40.7532 50.0015 40.7532C56.3089 40.7532 58.9469 39.537 58.9469 32.0025V24.0921C58.9469 23.8044 58.7141 23.5698 58.4288 23.5698H54.3416V23.5673Z" fill="#334E56"/>
<path d="M53.3054 21.9221H46.6927C46.4074 21.9221 46.1746 21.6874 46.1746 21.3998V19.1818C46.1746 18.8942 46.4074 18.6595 46.6927 18.6595H53.3054C53.5907 18.6595 53.8235 18.8942 53.8235 19.1818V21.3998C53.8235 21.6874 53.5907 21.9221 53.3054 21.9221Z" fill="#334E56"/>
<path d="M65.6599 40.4302C65.9452 40.4302 66.178 40.1956 66.178 39.9079V29.7619C66.178 24.8996 67.2267 24.4403 70.0024 24.4403C72.7781 24.4403 73.8269 24.8996 73.8269 29.7619V39.9105C73.8269 40.1981 74.0596 40.4328 74.345 40.4328H78.4272C78.7125 40.4328 78.9453 40.1981 78.9453 39.9105V32C78.9453 28.2277 78.3296 26.0779 76.8854 24.8138C75.3962 23.5092 73.1486 23.2468 69.9999 23.2468C63.6926 23.2468 61.0545 24.463 61.0545 31.9975V39.9054C61.0545 40.1931 61.2873 40.4277 61.5726 40.4277H65.6599V40.4302Z" fill="#334E56"/>
<path d="M66.6964 42.0779H73.3091C73.5944 42.0779 73.8272 42.3126 73.8272 42.6003V44.8182C73.8272 45.1059 73.5944 45.3405 73.3091 45.3405H66.6964C66.4111 45.3405 66.1783 45.1059 66.1783 44.8182V42.6003C66.1783 42.3126 66.4111 42.0779 66.6964 42.0779Z" fill="#334E56"/>
<path d="M81.5782 40.4302H85.6604C85.9457 40.4302 86.1785 40.1956 86.1785 39.9079V24.0921C86.1785 23.8044 85.9457 23.5698 85.6604 23.5698H81.5782C81.2928 23.5698 81.0601 23.8044 81.0601 24.0921V39.9104C81.0601 40.1981 81.2928 40.4302 81.5782 40.4302Z" fill="#334E56"/>
<path d="M87.4827 16H84.0361C83.8309 16 83.6457 16.1211 83.5631 16.3078L81.3906 21.1828C81.2354 21.5285 81.4882 21.9196 81.8636 21.9196H85.8132C86.0335 21.9196 86.2312 21.7783 86.3038 21.5663L87.9732 16.6914C88.0884 16.3533 87.8381 16 87.4827 16Z" fill="#334E56"/>
<rect x="0.5" y="0.5" width="119.002" height="63" rx="26.5" stroke="#334E56"/>
</svg>
